<svg width="104" height="104" viewBox="0 0 104 104" fill="none" xmlns="http://www.w3.org/2000/svg">
<g filter="url(#filter0_d_1200_9)">
<rect x="4" width="96" height="96" rx="10" fill="url(#paint0_linear_1200_9)" fill-opacity="0.88" shape-rendering="crispEdges"/>
<rect x="5.5" y="1.5" width="93" height="93" rx="8.5" stroke="#0C0B35" stroke-width="3" shape-rendering="crispEdges"/>
</g>
<path d="M35.6045 39V18.192H27.5405V13.62H49.2845V18.192H41.2205V39H35.6045ZM50.0743 26.292C50.0743 23.652 50.5663 21.36 51.5503 19.416C52.5583 17.448 53.9983 15.924 55.8703 14.844C57.7423 13.764 59.9623 13.224 62.5303 13.224C65.0983 13.224 67.3183 13.764 69.1903 14.844C71.0623 15.924 72.5023 17.448 73.5103 19.416C74.5423 21.36 75.0583 23.64 75.0583 26.256C75.0583 28.92 74.5423 31.236 73.5103 33.204C72.5023 35.148 71.0623 36.672 69.1903 37.776C67.3183 38.856 65.0983 39.396 62.5303 39.396C59.9623 39.396 57.7423 38.856 55.8703 37.776C54.0223 36.672 52.5943 35.136 51.5863 33.168C50.5783 31.2 50.0743 28.908 50.0743 26.292ZM55.9423 26.292C55.9423 28.908 56.4823 30.96 57.5623 32.448C58.6663 33.912 60.3223 34.644 62.5303 34.644C64.6903 34.644 66.3343 33.912 67.4623 32.448C68.5903 30.96 69.1543 28.908 69.1543 26.292C69.1543 23.652 68.5903 21.612 67.4623 20.172C66.3583 18.708 64.7143 17.976 62.5303 17.976C60.3223 17.976 58.6663 18.708 57.5623 20.172C56.4823 21.612 55.9423 23.652 55.9423 26.292ZM26.3967 84V58.62H36.0807C39.0327 58.62 41.5287 59.124 43.5687 60.132C45.6087 61.14 47.1447 62.592 48.1767 64.488C49.2327 66.36 49.7607 68.628 49.7607 71.292C49.7607 73.932 49.2327 76.2 48.1767 78.096C47.1447 79.992 45.6087 81.456 43.5687 82.488C41.5287 83.496 39.0327 84 36.0807 84H26.3967ZM32.0127 79.392H35.7567C38.5887 79.392 40.6887 78.732 42.0567 77.412C43.4487 76.068 44.1447 74.028 44.1447 71.292C44.1447 68.532 43.4487 66.492 42.0567 65.172C40.6887 63.852 38.5887 63.192 35.7567 63.192H32.0127V79.392ZM53.4141 71.292C53.4141 68.652 53.9061 66.36 54.8901 64.416C55.8981 62.448 57.3381 60.924 59.2101 59.844C61.0821 58.764 63.3021 58.224 65.8701 58.224C68.4381 58.224 70.6581 58.764 72.5301 59.844C74.4021 60.924 75.8421 62.448 76.8501 64.416C77.8821 66.36 78.3981 68.64 78.3981 71.256C78.3981 73.92 77.8821 76.236 76.8501 78.204C75.8421 80.148 74.4021 81.672 72.5301 82.776C70.6581 83.856 68.4381 84.396 65.8701 84.396C63.3021 84.396 61.0821 83.856 59.2101 82.776C57.3621 81.672 55.9341 80.136 54.9261 78.168C53.9181 76.2 53.4141 73.908 53.4141 71.292ZM59.2821 71.292C59.2821 73.908 59.8221 75.96 60.9021 77.448C62.0061 78.912 63.6621 79.644 65.8701 79.644C68.0301 79.644 69.6741 78.912 70.8021 77.448C71.9301 75.96 72.4941 73.908 72.4941 71.292C72.4941 68.652 71.9301 66.612 70.8021 65.172C69.6981 63.708 68.0541 62.976 65.8701 62.976C63.6621 62.976 62.0061 63.708 60.9021 65.172C59.8221 66.612 59.2821 68.652 59.2821 71.292Z" fill="url(#paint1_radial_1200_9)"/>
<defs>
<filter id="filter0_d_1200_9" x="0" y="0" width="104" height="104" filterUnits="userSpaceOnUse" color-interpolation-filters="sRGB">
<feFlood flood-opacity="0" result="BackgroundImageFix"/>
<feColorMatrix in="SourceAlpha" type="matrix" values="0 0 0 0 0 0 0 0 0 0 0 0 0 0 0 0 0 0 127 0" result="hardAlpha"/>
<feOffset dy="4"/>
<feGaussianBlur stdDeviation="2"/>
<feComposite in2="hardAlpha" operator="out"/>
<feColorMatrix type="matrix" values="0 0 0 0 0 0 0 0 0 0 0 0 0 0 0 0 0 0 0.25 0"/>
<feBlend mode="normal" in2="BackgroundImageFix" result="effect1_dropShadow_1200_9"/>
<feBlend mode="normal" in="SourceGraphic" in2="effect1_dropShadow_1200_9" result="shape"/>
</filter>
<linearGradient id="paint0_linear_1200_9" x1="52" y1="0" x2="52" y2="96" gradientUnits="userSpaceOnUse">
<stop offset="0.441551" stop-color="#4495F3"/>
<stop offset="1" stop-color="#251857" stop-opacity="0.5"/>
</linearGradient>
<radialGradient id="paint1_radial_1200_9" cx="0" cy="0" r="1" gradientUnits="userSpaceOnUse" gradientTransform="translate(52 48) rotate(90) scale(48)">
<stop stop-color="#1C24D4"/>
<stop offset="1" stop-color="#053E81"/>
</radialGradient>
</defs>
</svg>
